<svg id="Layer_1" enable-background="new 0 0 512 512" height="512" viewBox="0 0 512 512" width="512" xmlns="http://www.w3.org/2000/svg"><g><path d="m70.046 426.51c22.904 26.676 51.447 48.362 83.782 63.219l46.956 16.022c17.746 4.088 36.228 6.249 55.216 6.249 18.987 0 37.469-2.161 55.215-6.249l46.956-16.022c32.335-14.857 60.878-36.544 83.782-63.219l9.376-11.62c31.168-41.101 49.673-92.332 49.673-147.892 0-135.311-109.691-245.002-245.002-245.002s-245.002 109.691-245.002 245.002c0 55.56 18.505 106.792 49.673 147.893z" fill="#1c2e7a"/><path d="m199.231 27.997c-50.809-46.497-113.198-30.045-140.658 12.603-27.022 41.969-2.302 93.061 35.648 104.735-3.176-2.128-6.027-4.854-8.364-8.163-3.016-4.271-4.835-9.023-5.544-13.865-14.599-14.1-20.615-38.592-7.066-59.635 19.076-29.629 61.793-38.157 92.413-9.071 14.081 13.375 21.425 32.3 21.039 51.717v322.612c.386 19.417-6.958 38.342-21.039 51.717-3.781 3.592-7.748 6.605-11.831 9.081 14.909 6.85 30.618 12.258 46.957 16.022 20.95-20.559 30.758-48.011 31.886-76.82v-322.611c-1.156-29.515-11.416-57.609-33.441-78.322z" fill="#7e6dd1"/><path d="m232.67 428.931v-209.514c-26.855 22-45.972 0-45.972 0v209.515c.386 19.417-6.958 38.342-21.039 51.717-3.781 3.592-7.748 6.605-11.831 9.081 14.909 6.85 30.617 12.258 46.957 16.022 20.95-20.56 30.758-48.011 31.885-76.821z" fill="#7255ce"/><path d="m60.67 414.89c3.01 3.969 6.135 7.846 9.376 11.62 2.523-5.505 6.03-10.476 10.267-14.568.709-4.842 2.528-9.594 5.544-13.865 2.337-3.309 5.188-6.035 8.364-8.163-13.4 4.122-25.145 13.162-33.551 24.976z" fill="#7255ce"/><path d="m346.341 480.649c-14.082-13.375-21.425-32.3-21.039-51.717v-322.613c-.386-19.417 6.958-38.342 21.039-51.717 30.62-29.085 73.336-20.558 92.413 9.071 13.548 21.043 7.532 45.535-7.066 59.635-.709 4.842-2.528 9.594-5.544 13.865-2.337 3.309-5.188 6.035-8.364 8.163 37.95-11.674 62.67-62.766 35.648-104.735-27.461-42.649-89.85-59.101-140.66-12.604-22.024 20.713-32.284 48.807-33.439 78.322v322.612c1.127 28.81 10.935 56.261 31.885 76.82 16.34-3.764 32.048-9.172 46.957-16.022-4.082-2.475-8.049-5.489-11.83-9.08z" fill="#d3dcfb"/><path d="m311.215 505.752c16.339-3.764 32.048-9.172 46.957-16.022-4.083-2.476-8.05-5.489-11.831-9.081-14.082-13.375-21.425-32.3-21.039-51.717v-209.515c-24.224 32.333-45.972 0-45.972 0v209.515c1.127 28.809 10.935 56.26 31.885 76.82z" fill="#bec8f7"/><path d="m417.779 389.915c3.176 2.128 6.027 4.854 8.364 8.163 3.016 4.271 4.835 9.023 5.544 13.865 4.237 4.092 7.744 9.064 10.267 14.568 3.241-3.775 6.366-7.651 9.376-11.62-8.406-11.815-20.152-20.855-33.551-24.976z" fill="#bec8f7"/><path d="m382.064 224.161c-3.071-2.773-7.863-.537-7.801 3.6.001.061.001.122.001.183 0 20.706-52.949 37.492-118.265 37.492s-118.265-16.786-118.265-37.492c0-.061.001-.122.001-.183.062-4.137-4.73-6.373-7.801-3.6-7.542 6.812-11.733 14.35-11.733 22.279 0 30.434 61.694 55.105 137.797 55.105s137.797-24.672 137.797-55.105c.002-7.929-4.189-15.467-11.731-22.279z" fill="#9589e8"/><ellipse cx="401.617" cy="416.927" fill="#e9efff" rx="32.156" ry="32.156" transform="matrix(.981 -.197 .197 .981 -74.158 87.135)"/><ellipse cx="407.317" cy="411.131" fill="#fff" rx="15.378" ry="15.378" transform="matrix(.089 -.996 .996 .089 -38.324 780.374)"/><path d="m477.607 162.419c-32.134 7.056-73.941 23.489-60.691 60.515 24.746 69.15-27.587 109.15 9.746 131.15 16.59 9.776 31.918 19.691 43.316 32.304 19.756-35.324 31.023-76.039 31.023-119.389.001-37.414-8.399-72.862-23.394-104.58z" fill="#2a428c"/><path d="m95.083 222.934c13.25-37.026-28.557-53.459-60.691-60.515-14.995 31.719-23.394 67.166-23.394 104.579 0 43.35 11.267 84.065 31.023 119.389 11.398-12.613 26.727-22.528 43.316-32.304 37.333-22-15-62 9.746-131.149z" fill="#2a428c"/><path d="m256 265.436c-65.316 0-118.265-16.786-118.265-37.492 0-.061.001-.122.001-.183.062-4.137-4.73-6.373-7.801-3.6-7.542 6.812-11.733 14.35-11.733 22.279 0 30.434 61.694 55.105 137.797 55.105-20.364-20.364.001-36.109.001-36.109z" fill="#7e6dd1"/><ellipse cx="401.617" cy="118.323" fill="#e9efff" rx="32.156" ry="32.156" transform="matrix(.981 -.197 .197 .981 -15.428 81.303)"/><ellipse cx="407.317" cy="112.528" fill="#fff" rx="15.378" ry="15.378" transform="matrix(.089 -.996 .996 .089 259.102 508.258)"/><path d="m91.833 92.057c14.507-10.245 34.571-6.79 44.816 7.717s6.79 34.571-7.717 44.816-34.571 6.79-44.816-7.717c-10.244-14.507-6.789-34.571 7.717-44.816z" fill="#9589e8"/><path d="m107.212 99.967c6.938-4.899 16.533-3.247 21.432 3.69s3.247 16.533-3.691 21.432c-6.937 4.899-16.533 3.247-21.432-3.69s-3.246-16.533 3.691-21.432z" fill="#b5b0f7"/><path d="m91.833 390.66c14.507-10.245 34.571-6.79 44.816 7.717s6.79 34.571-7.717 44.816-34.571 6.79-44.816-7.717c-10.244-14.506-6.789-34.571 7.717-44.816z" fill="#9589e8"/><path d="m107.212 398.57c6.938-4.899 16.533-3.247 21.432 3.69s3.247 16.533-3.691 21.432c-6.937 4.899-16.533 3.247-21.432-3.69-4.898-6.937-3.246-16.532 3.691-21.432z" fill="#b5b0f7"/><circle cx="389.709" cy="309.796" fill="#3c58a0" r="8.25"/><circle cx="139.924" cy="329.284" fill="#6289cc" r="8.25"/><ellipse cx="366.681" cy="177.196" fill="#2a428c" rx="14.777" ry="14.777" transform="matrix(.231 -.973 .973 .231 109.505 492.971)"/><path d="m453.427 40.6c-22.638-35.16-69.016-52.508-113.075-31.465-.04.089-12.41 27.414 19.023 35.675.008.002.016.004.023.006 28.732-16.571 62.869-6.749 79.355 18.857 1.503 2.335 2.752 4.713 3.789 7.114.001.001 13.929 10.003 21.302-3.682-1.525-8.94-4.886-17.913-10.417-26.505z" fill="#e9efff"/></g></svg>