<svg id="Layer_1" enable-background="new 0 0 512 512" height="512" viewBox="0 0 512 512" width="512" xmlns="http://www.w3.org/2000/svg"><g><path d="m245.002 10.982c-52.924 0-101.926 16.782-141.981 45.313l-28.407 23.66c-22.806 22.08-41.329 48.549-54.216 78.049l-6.31 15.954c-9.112 25.647-14.088 53.254-14.088 82.026 0 135.311 109.691 245.002 245.002 245.002s245.002-109.691 245.002-245.002-109.691-245.002-245.002-245.002z" fill="#5c45bf"/><path d="m397.015 311.775c-10.642 9.314-22.533 18.515-35.124 28.257-25.111 19.429-51.077 42.655-68.791 65.354-19.095 24.469-22.342 54.363-15.896 80.453.304 1.229 1.423 2.083 2.689 2.083 1.3 0 2.442-.899 2.705-2.172 10.397-50.258 77.43-104.662 77.43-104.662l21.059-16.245c12.405-9.598 25.232-19.523 36.587-29.46z" fill="#fc90ce"/><path d="m293.1 405.385c-2.382 3.052-4.516 6.188-6.417 9.391s22.019-3.123 18.418 24.517c9.955-13.929 21.484-26.625 31.404-36.581l-9.692-33.158c-12.646 11.667-24.34 23.821-33.713 35.831z" fill="#fb7ac0"/><path d="m438.119 358.014c3.471.351 6.936 1.323 10.238 2.985 4.261 2.145 7.766 5.192 10.414 8.787 17.806 5.092 33.16 22.234 31.278 44.994-2.663 32.199-33.686 57.482-71.063 46.806-26.26-7.5-38.287-27.811-46.672-51.277l-.001.001c-21.468-59.449-8.01-129.12-8.068-130.052l.006.006c4.193-27.792 12.5-58.531 24.914-91.929l.118-.323c12.325-33.585 1.104-69.035-28.587-90.312-31.88-22.845-73.696-21.739-104.053 2.752-3.813 3.076-28.6 26.287-28.842 26.514l29.41 31.25c4.215-3.967 23.587-21.987 26.461-24.433 18.691-15.014 39.702-10.039 52.027-1.204 5.241 3.756 21.689 17.786 13.279 40.703l-.066.178c-23.265 62.597-39.307 136.804-28.335 203.22 6.998 54.406 31.696 106.864 83.319 120.885 60.868 15.646 104.054-24.373 107.869-70.501 3.754-45.391-38.075-75.931-73.646-69.05z" fill="#fcb1df"/><path d="m464.247 244.976c-5.501-22.288-21.245-31.714-31.468-35.642-37.634-14.463-69.329 16.608-73.67 18.912 0 0 61.655-11.415 71.785 25.369 4.056 16.435-6.076 33.828-33.88 58.16-1.572 12.056 7.447 22.9 19.587 23.55l1.073.057c25.161-22.019 55.761-53.187 46.573-90.406z" fill="#fcb1df"/><g><path d="m250.937 401.464c-16.259 15.137-42.772 9.372-51.021-11.255-7.346-18.369-11.433-39.77-12.03-63.539-1.1-43.822 9.243-95.368 30.74-153.208l.066-.178c8.409-22.916-8.038-36.947-13.279-40.703-12.327-8.835-33.342-13.807-52.034 1.208-2.781 2.358-21.134 19.422-25.109 23.163l-29.41-31.25c.228-.215 23.678-22.168 27.493-25.246 30.361-24.494 72.178-25.602 104.057-2.755 29.69 21.278 40.911 56.727 28.586 90.312l-.118.323c-19.613 52.77-29.056 98.924-28.094 137.257.74 29.498 7.862 53.272 20.656 69.14 1.631 2.021 1.398 4.961-.503 6.731z" fill="#fc90ce"/></g><path d="m88.81 156.548c-5.557 21.225-38.04 93.786-36.124 170.122.596 23.769 4.684 45.17 12.029 63.539 8.249 20.626 34.762 26.391 51.021 11.254 1.9-1.769 2.133-4.709.503-6.73-12.793-15.868-19.915-39.642-20.655-69.14-.962-38.333 8.48-84.487 28.065-137.181 11.32-30.458 14.846-58.607 10.482-83.666-3.498-20.085-14.766-37.164-31.112-48.452-10.064 7.168-19.554 15.088-28.408 23.66 21.888 11.397 27.039 38.476 14.199 76.594z" fill="#fb7ac0"/><path d="m80.637 145.832c-3.778 5.12-9.659 8.667-16.406 9.343-10.689 10.104-28.619 13.653-43.407 3.151-.146-.104-.283-.217-.427-.322-2.283 5.226-4.389 10.546-6.31 15.954 27.368 11.283 57.964-4.15 66.55-28.126z" fill="#f964b2"/><ellipse cx="61.282" cy="132.723" fill="#fc90ce" rx="23.919" ry="23.919" transform="matrix(.441 -.898 .898 .441 -84.865 129.274)"/><path d="m75.277 123.765c3.523 5.504 1.917 12.822-3.587 16.345s-12.822 1.917-16.345-3.587-1.917-12.822 3.586-16.345c5.504-3.522 12.822-1.917 16.346 3.587z" fill="#fcb1df"/><path d="m335.698 132.581c1.814 1.3 4.97 3.832 7.973 7.536-5.185-32.996 31.764-28.208 32.539-28.104-4.414-5.247-9.59-10.065-15.514-14.311-31.88-22.845-73.696-21.739-104.053 2.752-3.813 3.076-28.6 26.287-28.842 26.514l29.41 31.25c4.215-3.967 23.587-21.987 26.461-24.433 18.691-15.014 39.702-10.039 52.026-1.204z" fill="#fc90ce"/><path d="m237.68 103.53c-2.286-2.04-4.704-3.99-7.269-5.829-31.879-22.846-73.696-21.739-104.057 2.755-3.815 3.078-27.265 25.031-27.493 25.246l29.41 31.25c3.975-3.741 22.329-20.805 25.109-23.163 18.692-15.015 39.707-10.043 52.034-1.208 1.323.948 3.36 2.553 5.532 4.788-7.688-35.639 26.214-33.868 26.734-33.839z" fill="#fb7ac0"/><ellipse cx="436.693" cy="386.703" fill="#fc90ce" rx="29.342" ry="29.342" transform="matrix(.014 -1 1 .014 43.956 817.976)"/><path d="m428.791 374.037c3.308-6.57 11.316-9.215 17.886-5.907s9.215 11.316 5.907 17.886-11.316 9.215-17.886 5.907-9.215-11.316-5.907-17.886z" fill="#fcb1df"/><path d="m103.021 56.295c-10.064 7.168-19.554 15.088-28.408 23.66 11.207 5.836 18.014 15.793 20.276 29.231 7.071-22.282 25.559-21.287 35.128-19.079-5.422-13.726-14.792-25.384-26.996-33.812z" fill="#f964b2"/><circle cx="289.317" cy="42.091" fill="#b5b0f7" r="8.25"/><circle cx="154.901" cy="418.247" fill="#b5b0f7" r="8.25"/><g fill="#7255ce"><circle cx="154.901" cy="249.986" r="8.25"/><ellipse cx="229.211" cy="50.341" rx="14.777" ry="14.777" transform="matrix(.724 -.69 .69 .724 28.625 172.149)"/><ellipse cx="214.433" cy="456.783" rx="14.777" ry="14.777" transform="matrix(.228 -.974 .974 .228 -279.242 561.266)"/></g><path d="m464.247 244.976c-5.501-22.288-21.245-31.714-31.468-35.642-2.068-.795-4.117-1.445-6.146-1.977-5.383 3.883-15.876 13.757-8.959 28.175.001.002.001.003.002.005 6.131 4.07 10.958 9.872 13.218 18.077 1.415 5.734 1.097 11.585-1.089 17.806 1.436 4.118 8.431 19.584 30.416 12.623 5.331-12.067 7.463-25.144 4.026-39.067z" fill="#fcc8ea"/></g></svg>