<svg width="24" height="24" viewBox="0 0 24 24" fill="none" xmlns="http://www.w3.org/2000/svg">
<path d="M12 24C18.6274 24 24 18.6274 24 12C24 5.37258 18.6274 0 12 0C5.37258 0 0 5.37258 0 12C0 18.6274 5.37258 24 12 24Z" fill="#FFCA7B"/>
<path d="M10.6667 11.3053C10.3873 11.3053 10.1273 11.1287 10.034 10.8493C9.89866 10.45 9.35533 9.30534 8.66666 9.30534C7.95866 9.30534 7.408 10.5233 7.29933 10.8493C7.18267 11.198 6.80733 11.388 6.456 11.2707C6.10666 11.1547 5.918 10.7767 6.03466 10.4273C6.118 10.176 6.904 7.97134 8.66733 7.97134C10.4307 7.97134 11.216 10.176 11.3 10.4273C11.4167 10.7767 11.228 11.1547 10.8787 11.2707C10.808 11.2947 10.7367 11.3053 10.6667 11.3053ZM17.3333 11.3053C17.054 11.3053 16.794 11.1287 16.7013 10.8493C16.566 10.45 16.022 9.30534 15.3333 9.30534C14.6253 9.30534 14.074 10.5233 13.9653 10.8493C13.8487 11.198 13.4747 11.388 13.122 11.2707C12.7733 11.1547 12.584 10.7767 12.7007 10.4273C12.784 10.176 13.57 7.97134 15.3327 7.97134C17.0953 7.97134 17.8813 10.176 17.9647 10.4273C18.0813 10.7767 17.8927 11.1547 17.5433 11.2707C17.474 11.2947 17.4033 11.3053 17.3333 11.3053ZM18.2233 13.794C18.1047 13.6867 17.9273 13.68 17.8 13.7747C17.774 13.794 15.1853 15.708 12 15.708C8.82266 15.708 6.22533 13.794 6.2 13.7747C6.07267 13.68 5.89533 13.688 5.77666 13.794C5.65866 13.9007 5.632 14.0767 5.714 14.2127C5.8 14.356 7.85866 17.708 12 17.708C16.1413 17.708 18.2007 14.356 18.286 14.2127C18.368 14.076 18.342 13.9013 18.2233 13.794Z" fill="#1C092B"/>
<path d="M14.1527 2.63128C14.1527 2.79128 14.1727 2.94595 14.2073 3.09528C14.4907 4.85728 16.45 6.71595 17.854 7.22661C18.964 6.82328 20.418 5.57595 21.1193 4.20061C19.7267 2.57395 17.9067 1.32461 15.8333 0.625946C14.8787 0.797279 14.1527 1.62728 14.1527 2.63128ZM9.162 19.3853C9.2 19.2239 9.222 19.0559 9.222 18.8826C9.222 17.6606 8.23134 16.6699 7.00934 16.6699C6.26734 16.6699 5.61334 17.0359 5.21134 17.5959C4.81 17.0366 4.15534 16.6699 3.41334 16.6699C2.586 16.6699 1.87267 17.1293 1.49334 17.8019C2.70934 19.9986 4.59334 21.7733 6.872 22.8513C7.96334 21.9506 8.95934 20.6466 9.162 19.3853ZM22.8673 17.0946C22.6793 16.4613 22.0993 15.9966 21.4047 15.9966C20.8907 15.9966 20.4373 16.2499 20.1593 16.6379C19.8813 16.2499 19.428 15.9966 18.914 15.9966C18.0673 15.9966 17.3813 16.6826 17.3813 17.5293C17.3813 17.6493 17.3967 17.7653 17.4227 17.8773C17.6273 19.1473 18.988 20.4746 20.0287 20.9179C21.2127 19.8513 22.1827 18.5533 22.8673 17.0946Z" fill="#DA9730"/>
<path d="M22.4167 2.17936C22.4167 1.05136 21.502 0.13736 20.3747 0.13736C19.69 0.13736 19.086 0.47536 18.7153 0.992026C18.3447 0.47536 17.7407 0.13736 17.056 0.13736C15.928 0.13736 15.014 1.05136 15.014 2.17936C15.014 2.33936 15.034 2.49403 15.0687 2.64336C15.3527 4.40536 17.3113 6.26403 18.7153 6.77469C20.1193 6.26403 22.078 4.40536 22.3613 2.64403C22.3967 2.49403 22.4167 2.33936 22.4167 2.17936ZM8.13867 18.9387C8.13867 17.7167 7.148 16.726 5.926 16.726C5.184 16.726 4.53 17.092 4.128 17.652C3.72667 17.092 3.072 16.726 2.33 16.726C1.108 16.726 0.117332 17.7167 0.117332 18.9387C0.117332 19.112 0.139332 19.2794 0.176666 19.4414C0.483999 21.35 2.606 23.364 4.12733 23.9174C5.64867 23.3647 7.77067 21.3507 8.078 19.442C8.11667 19.2794 8.13867 19.1114 8.13867 18.9387ZM23.9653 17.418C23.9653 16.5714 23.2793 15.8854 22.4327 15.8854C21.9187 15.8854 21.4653 16.1387 21.1873 16.5267C20.9093 16.1387 20.456 15.8854 19.942 15.8854C19.0953 15.8854 18.4093 16.5714 18.4093 17.418C18.4093 17.538 18.4247 17.654 18.4507 17.766C18.6633 19.088 20.1333 20.4834 21.1873 20.866C22.2407 20.4834 23.7113 19.088 23.9233 17.766C23.95 17.654 23.9653 17.538 23.9653 17.418Z" fill="#DD2E44"/>
</svg>