<svg width="16" height="16" viewBox="0 0 16 16" fill="none" xmlns="http://www.w3.org/2000/svg">
    <path fill-rule="evenodd" clip-rule="evenodd" d="M9.87234 5.91641L13.099 6.19641C13.6857 6.24307 13.919 6.97641 13.4723 7.36307L11.0257 9.48307L11.759 12.6364C11.8923 13.2097 11.2723 13.6631 10.7657 13.3564L7.99901 11.6831L5.23234 13.3497C4.72568 13.6564 4.10568 13.2031 4.23901 12.6297L4.97234 9.48307L2.52568 7.36307C2.07901 6.97641 2.31901 6.24307 2.90568 6.19641L6.12568 5.92307L7.38568 2.94974C7.61234 2.40974 8.38568 2.40974 8.61234 2.94974L9.87234 5.91641ZM5.49231 11.9497L7.99898 10.4364L10.5123 11.9564L9.84565 9.10308L12.059 7.18308L9.13898 6.92975L7.99898 4.23641L6.86565 6.92308L3.94565 7.17641L6.15898 9.09641L5.49231 11.9497Z" fill="#630CD2"/>
</svg>