<svg id="Layer_1" enable-background="new 0 0 512 512" height="512" viewBox="0 0 512 512" width="512" xmlns="http://www.w3.org/2000/svg"><g><path d="m245.002 5.499c-55.788 0-107.211 18.659-148.397 50.06l-27.77 24.695c-22.27 23.039-40.068 50.427-51.98 80.776l-5.574 15.793c-7.323 23.255-11.281 48.003-11.281 73.678 0 135.311 109.691 245.002 245.002 245.002s245.002-109.691 245.002-245.002-109.691-245.002-245.002-245.002z" fill="#ffc839"/><path d="m511.991 424.959s.001-54.679-49.915-76.842c-2.775 1.804-5.79 3.571-9.069 5.29-.676.354-1.046 1.109-.913 1.86.663 3.742 1.095 7.276 1.363 10.654 6.201 4.01 13.699 10.003 20.152 18.443 29.879 39.078-5.84 94.853-53.55 82.869-.71-.178-1.421-.369-2.136-.573-26.561-7.586-38.726-28.13-47.207-51.866l-.001.001c-21.714-60.131-8.102-130.601-8.16-131.544l.006.006c4.241-28.111 12.644-59.202 25.199-92.983l.12-.326c12.466-33.97 1.117-69.827-28.915-91.348-32.245-23.108-74.542-21.989-105.247 2.784-3.857 3.111-28.928 26.589-29.173 26.819l29.747 31.608c4.263-4.012 23.858-22.24 26.764-24.713 18.906-15.186 40.158-10.154 52.624-1.218 5.302 3.799 21.938 17.99 13.432 41.17l-.067.18c-23.532 63.315-39.758 138.373-28.66 205.551 7.078 55.03 32.06 108.09 84.274 122.272 64.035 16.458 110.101-28.688 109.332-78.094z" fill="#9589e8"/><g><path d="m247.947 405.845c-16.446 15.31-43.263 9.479-51.607-11.384-7.43-18.579-11.564-40.226-12.168-64.268-1.113-44.324 9.349-96.462 31.093-154.965l.067-.18c8.506-23.179-8.13-37.371-13.431-41.17-12.468-8.936-33.724-13.966-52.63 1.222-2.812 2.385-21.377 19.645-25.398 23.429l-29.747-31.608c.231-.217 23.95-22.422 27.808-25.535 30.71-24.775 73.007-25.896 105.251-2.787 30.031 21.522 41.38 57.378 28.914 91.348l-.12.326c-19.838 53.375-29.389 100.059-28.416 138.832.749 29.836 7.952 53.883 20.893 69.933 1.648 2.044 1.413 5.018-.509 6.807z" fill="#7e6dd1"/></g><g fill="#7255ce"><path d="m68.835 80.253c22.784 11.289 28.26 38.869 15.124 77.867-5.621 21.469-38.476 94.862-36.538 172.074.603 24.041 4.737 45.688 12.167 64.267 8.343 20.863 35.161 26.694 51.607 11.384 1.922-1.789 2.157-4.763.509-6.807-12.94-16.05-20.144-40.097-20.892-69.933-.973-38.773 8.578-85.456 28.387-138.754 11.45-30.807 15.017-59.279 10.603-84.626-3.66-21.015-15.73-38.777-33.197-50.166-9.872 7.526-19.156 15.783-27.77 24.694z"/><path d="m75.693 147.281c-3.821 5.178-9.77 8.766-16.594 9.451-10.415 9.845-27.623 13.531-42.242 4.295-2.034 5.182-3.891 10.451-5.575 15.798 26.907 9.219 56.028-6.137 64.411-29.544z"/></g><path d="m333.68 133.879c2.466 1.767 7.382 5.785 11.081 11.907 0-35.445 34.091-26.719 34.565-26.596-5.318-7.716-12.133-14.694-20.362-20.591-32.245-23.108-74.542-21.989-105.247 2.784-3.857 3.111-28.928 26.589-29.173 26.819l29.747 31.608c4.263-4.012 23.858-22.24 26.764-24.713 18.907-15.187 40.159-10.155 52.625-1.218z" fill="#7e6dd1"/><path d="m121.934 101.385c-2.711 2.188-15.219 13.793-22.503 20.581-.314 3.391-.608 6.656-.867 9.67l25.309 26.892c4.021-3.784 22.585-21.043 25.398-23.429 15.482-12.437 32.536-11.313 45.053-5.593-13.204-31.167 17.722-38.941 18.748-39.189-29.778-14.029-64.737-10.231-91.138 11.068z" fill="#7255ce"/><path d="m501.863 386.019c-7.107-14.087-19.198-28.76-39.788-37.902-2.775 1.804-5.79 3.571-9.069 5.29-.676.354-1.046 1.109-.913 1.86.663 3.742 1.095 7.276 1.363 10.654 6.201 4.01 13.699 10.004 20.152 18.443 3.795 4.963 6.527 10.196 8.315 15.525 0-.001 0-.002 0-.003 0-20.314 19.939-13.867 19.94-13.867z" fill="#7e6dd1"/><path d="m417.753 331.487c-4.369.881-6.695 5.669-4.72 9.665 14.335 29.001 28.791 65.69 7.767 83.6-1.313 1.118-.054 3.204 1.543 2.551 14.573-5.953 39.91-23.33 31.47-70.979-.133-.751.237-1.506.913-1.86 42.861-22.466 41.11-53.141 36.906-68.311-.46-1.662-2.88-1.382-2.962.34-1.312 27.588-39.2 38.596-70.917 44.994z" fill="#b5b0f7"/><path d="m413.033 341.152c14.334 29.001 28.791 65.69 7.767 83.6-1.313 1.118-.054 3.204 1.543 2.551 14.573-5.953 39.91-23.33 31.47-70.979-.133-.751.237-1.506.913-1.86-24.275-1.651-20.357-26.729-20.357-26.729l-.001-.003c-5.576 1.425-11.185 2.66-16.613 3.755-4.37.882-6.697 5.67-4.722 9.665z" fill="#9589e8"/><ellipse cx="56.451" cy="134.546" fill="#7e6dd1" rx="23.572" ry="23.571" transform="matrix(.282 -.96 .96 .282 -88.545 150.845)"/><path d="m68.642 125.277c3.232 5.049 1.759 11.762-3.29 14.993-5.049 3.232-11.762 1.759-14.993-3.29-3.232-5.049-1.759-11.762 3.29-14.993 5.048-3.232 11.761-1.759 14.993 3.29z" fill="#9589e8"/><g fill="#fff2bd"><circle cx="272.176" cy="445.653" r="8.25"/><circle cx="131.635" cy="327.32" r="8.25"/><circle cx="301.935" cy="40.781" r="8.25"/></g><ellipse cx="208.296" cy="457.148" fill="#ffe888" rx="14.777" ry="14.777" transform="matrix(.23 -.973 .973 .23 -284.479 554.841)"/><ellipse cx="245.002" cy="55.559" fill="#ffe888" rx="14.777" ry="14.777" transform="matrix(.707 -.707 .707 .707 32.474 189.515)"/><path d="m366.571 37.745c-4.409 12.985-4.57 30.378 12.755 47.703 34.337 34.337 57.341 74 42.007 123.333-14.362 46.207 12.805 88.466 68.069 58.784.388-5.639.601-11.327.601-17.065.001-91.067-49.689-170.527-123.432-212.755z" fill="#ffdd40"/></g></svg>