<svg id="Layer_1" enable-background="new 0 0 512 512" height="512" viewBox="0 0 512 512" width="512" xmlns="http://www.w3.org/2000/svg"><g><path d="m245.002 10.998c-83.596 0-157.4 41.878-201.614 105.789l-42.976 125.131c-.264 4.662-.412 9.354-.412 14.082 0 28.818 4.991 56.467 14.13 82.149l46.663 79.368c44.904 51.172 110.779 83.485 184.209 83.485 135.311 0 245.002-109.691 245.002-245.002s-109.691-245.002-245.002-245.002z" fill="#1c2e7a"/><path d="m132.471 105.582c-28.579-18.294-65.98-13.409-88.378 10.486-.241.235-.468.482-.706.719-24.85 35.923-40.349 78.802-42.975 125.131h72.357c7.528 0 11.066-9.184 5.578-14.337-.066-.062-.131-.123-.197-.185-16.014-15.147-23.209-33.612-23.207-51.438 1.907-41.708 48.577-66.39 84.234-43.566 14.25 9.122 22.849 23.741 24.811 39.311 2.835-25.402-8.533-51.408-31.517-66.121z" fill="#4fabf7"/><path d="m480.055 281.181c-28.579-18.294-65.98-13.409-88.377 10.486-8.199 8.01-14.987 17.358-20.044 27.603-29.532 59.827-65.434 97.023-66.383 98.247h115.103c7.528 0 11.066-9.184 5.578-14.337-.066-.062-.131-.124-.197-.185-16.014-15.147-23.209-33.612-23.207-51.438 1.907-41.708 48.577-66.391 84.234-43.566 14.25 9.122 22.849 23.741 24.811 39.311 2.833-25.402-8.535-51.409-31.518-66.121z" fill="#9bd8f9"/><ellipse cx="482.97" cy="347.636" fill="#9bd8f9" rx="29.03" ry="29.03" transform="matrix(.914 -.407 .407 .914 -99.664 226.603)"/><ellipse cx="487.97" cy="343.799" fill="#c5ebfc" rx="14.515" ry="14.515" transform="matrix(.231 -.973 .973 .231 40.671 739.067)"/><path d="m306.263 281.181c-28.579-18.294-65.98-13.409-88.378 10.486-8.199 8.01-14.987 17.358-20.044 27.603-29.532 59.827-65.434 97.023-66.383 98.247h115.102c7.528 0 11.066-9.184 5.578-14.337-.066-.062-.131-.124-.197-.185-16.014-15.147-23.209-33.612-23.207-51.438 1.907-41.708 48.577-66.391 84.234-43.566 14.25 9.122 22.849 23.741 24.811 39.311 2.836-25.402-8.533-51.409-31.516-66.121z" fill="#73c3f9"/><path d="m132.471 281.181c-28.579-18.294-65.98-13.409-88.378 10.486-8.199 8.01-14.987 17.358-20.044 27.603-3.247 6.578-6.573 12.866-9.919 18.879 10.485 29.464 26.444 56.328 46.663 79.368h11.976c7.528 0 11.066-9.184 5.578-14.337-.066-.062-.131-.123-.197-.185-16.014-15.147-23.209-33.612-23.207-51.438 1.907-41.708 48.577-66.391 84.234-43.566 14.25 9.122 22.849 23.741 24.811 39.311 2.835-25.402-8.533-51.409-31.517-66.121z" fill="#4fabf7"/><path d="m425.735 402.995c-16.014-15.147-23.209-33.612-23.207-51.438.51-11.15 4.221-21.081 10.063-29.215-27.546 6.507-30.518-19.053-30.59-19.719-3.979 5.203-7.466 10.771-10.367 16.647-29.532 59.827-65.434 97.023-66.383 98.247h115.103c7.528 0 11.066-9.184 5.578-14.337-.066-.061-.132-.123-.197-.185z" fill="#73c3f9"/><path d="m251.943 402.995c-16.014-15.147-23.208-33.612-23.206-51.438.51-11.15 4.221-21.081 10.063-29.215-27.546 6.507-30.518-19.053-30.59-19.719-3.979 5.203-7.467 10.771-10.367 16.647-29.532 59.827-65.434 97.023-66.383 98.247h115.102c7.528 0 11.066-9.184 5.578-14.337-.066-.061-.132-.123-.197-.185z" fill="#4fabf7"/><ellipse cx="309.178" cy="347.636" fill="#73c3f9" rx="29.03" ry="29.03" transform="matrix(.918 -.396 .396 .918 -112.396 150.869)"/><ellipse cx="314.178" cy="343.799" fill="#9bd8f9" rx="14.515" ry="14.515" transform="matrix(.231 -.973 .973 .231 -92.942 569.983)"/><ellipse cx="135.386" cy="347.636" fill="#4fabf7" rx="29.03" ry="29.03" transform="matrix(.707 -.707 .707 .707 -206.163 197.553)"/><ellipse cx="140.386" cy="343.799" fill="#73c3f9" rx="14.515" ry="14.515" transform="matrix(.707 -.707 .707 .707 -201.985 199.964)"/><path d="m72.769 417.517c7.528 0 11.066-9.184 5.578-14.337-.066-.062-.131-.123-.197-.185-16.014-15.147-23.209-33.612-23.207-51.438.497-10.871 4.04-20.582 9.631-28.6-26.886 7.131-30.114-19.737-30.179-20.308-3.97 5.195-7.451 10.754-10.347 16.62-3.247 6.578-6.573 12.866-9.919 18.879 10.485 29.464 26.444 56.328 46.663 79.368h11.977z" fill="#1e9ef4"/><path d="m480.055 105.582c-28.579-18.294-65.98-13.409-88.377 10.486-8.199 8.01-14.987 17.358-20.044 27.603-29.532 59.827-65.434 97.023-66.383 98.247h115.103c7.528 0 11.066-9.184 5.578-14.337-.066-.062-.131-.124-.197-.185-16.014-15.147-23.209-33.612-23.207-51.438 1.907-41.708 48.577-66.39 84.234-43.566 14.25 9.122 22.849 23.741 24.811 39.311 2.833-25.402-8.535-51.409-31.518-66.121z" fill="#9bd8f9"/><ellipse cx="482.97" cy="172.038" fill="#9bd8f9" rx="29.03" ry="29.03" transform="matrix(.914 -.407 .407 .914 -28.212 211.409)"/><ellipse cx="487.97" cy="168.201" fill="#c5ebfc" rx="14.515" ry="14.515" transform="matrix(.231 -.973 .973 .231 211.513 604.065)"/><path d="m306.263 105.582c-28.579-18.294-65.98-13.409-88.378 10.486-8.199 8.01-14.987 17.358-20.044 27.603-29.532 59.827-65.434 97.023-66.383 98.247h115.102c7.528 0 11.066-9.184 5.578-14.337-.066-.062-.131-.124-.197-.185-16.014-15.147-23.209-33.612-23.207-51.438 1.907-41.708 48.577-66.39 84.234-43.566 14.25 9.122 22.849 23.741 24.811 39.311 2.836-25.402-8.533-51.409-31.516-66.121z" fill="#73c3f9"/><path d="m425.735 227.396c-16.014-15.147-23.209-33.612-23.207-51.438.51-11.15 4.221-21.081 10.063-29.215-27.546 6.507-30.518-19.053-30.59-19.719-3.979 5.203-7.466 10.771-10.367 16.647-29.532 59.827-65.434 97.023-66.383 98.247h115.103c7.528 0 11.066-9.184 5.578-14.337-.066-.061-.132-.123-.197-.185z" fill="#73c3f9"/><path d="m251.943 227.396c-16.014-15.147-23.208-33.612-23.206-51.438.51-11.15 4.221-21.081 10.063-29.215-27.546 6.507-30.518-19.053-30.59-19.719-3.979 5.203-7.467 10.771-10.367 16.647-29.532 59.827-65.434 97.023-66.383 98.247h115.102c7.528 0 11.066-9.184 5.578-14.337-.066-.061-.132-.123-.197-.185z" fill="#4fabf7"/><ellipse cx="309.178" cy="172.038" fill="#73c3f9" rx="29.03" ry="29.03" transform="matrix(.918 -.396 .396 .918 -42.853 136.511)"/><ellipse cx="314.178" cy="168.201" fill="#9bd8f9" rx="14.515" ry="14.515" transform="matrix(.231 -.973 .973 .231 77.9 434.981)"/><ellipse cx="135.386" cy="172.038" fill="#4fabf7" rx="29.03" ry="29.03" transform="matrix(.707 -.707 .707 .707 -81.995 146.121)"/><ellipse cx="140.386" cy="168.201" fill="#73c3f9" rx="14.515" ry="14.515" transform="matrix(.707 -.707 .707 .707 -77.818 148.533)"/><path d="m78.151 227.396c-16.014-15.147-23.209-33.612-23.207-51.438.519-11.351 4.359-21.436 10.384-29.651-27.164 4.807-28.65-19.27-28.651-19.283-20.92 33.72-33.884 72.889-36.265 114.894h72.357c7.528 0 11.066-9.184 5.578-14.337-.065-.061-.131-.123-.196-.185z" fill="#1e9ef4"/><circle cx="220.056" cy="458.75" fill="#6289cc" r="8.25"/><circle cx="284.885" cy="63.075" fill="#6289cc" r="8.25"/><g fill="#2a428c"><ellipse cx="220.056" cy="48.298" rx="14.777" ry="14.777" transform="matrix(.228 -.974 .974 .228 122.793 251.515)"/><ellipse cx="276.635" cy="473.527" rx="14.777" ry="14.777" transform="matrix(.707 -.707 .707 .707 -253.81 334.304)"/></g></g></svg>