<svg id="Layer_1" enable-background="new 0 0 512 512" height="512" viewBox="0 0 512 512" width="512" xmlns="http://www.w3.org/2000/svg"><g><path d="m489.72 329.678s7.113-34.763 8.28-39.472c1.167-4.708 1.833-15.958 1.833-15.958l-5.657-75.842c-25.907-107.518-122.704-187.408-238.176-187.408-115.471 0-212.268 79.89-238.176 187.408l-5.699 69.361v8.169s.688 10.75 2.188 16.562c1.5 5.813 7.967 37.18 7.967 37.18 24.617 78.162 87.351 139.418 166.411 161.959.005.001 45.311 7.028 67.309 7.028 22 0 67.568-7.104 67.568-7.104 78.938-22.601 141.563-83.806 166.152-161.883z" fill="#e80054"/><path d="m120.972 194.205-12.964-68.892c-1.154-6.69-3.555-13.141-7.352-18.768-12.328-18.277-35.935-26.185-57.405-17.513-15.89 6.418-25.142 22.26-23.926 38.481-3.24 3.932-5.186 8.969-5.186 14.46 0 7.415 3.563 13.982 9.052 18.136l-.073.317c-8.012-4.777-14.82-12.157-18.898-22.252-11.951-29.588 2.347-63.262 31.935-75.213 39.745-16.053 84.358 5.67 96.224 47.75l40.633 142.124-1.114-.144c-9.317-26.558-27.998-46.843-50.926-58.486z" fill="#ffb332"/><ellipse cx="35.837" cy="141.973" fill="#ffdd40" rx="22.755" ry="22.755" transform="matrix(.142 -.99 .99 .142 -109.786 157.295)"/><ellipse cx="31.587" cy="138.621" fill="#ffe888" rx="12.403" ry="12.403" transform="matrix(.142 -.99 .99 .142 -110.113 150.227)"/><path d="m120.972 194.205-11.109-59.036c22.53 8.171 26.95-8.951 26.95-8.951l36.075 126.181-.989.293c-9.318-26.559-27.999-46.844-50.927-58.487z" fill="#ff9100"/><path d="m391.028 194.205 12.964-68.892c1.154-6.69 3.556-13.141 7.352-18.768 12.329-18.277 35.936-26.186 57.406-17.514 15.89 6.418 25.142 22.26 23.926 38.481 3.24 3.932 5.186 8.969 5.186 14.46 0 7.415-3.563 13.982-9.052 18.136l.073.317c8.012-4.777 14.82-12.157 18.898-22.252 11.951-29.588-2.347-63.262-31.935-75.213-39.745-16.053-84.358 5.67-96.224 47.75l-40.633 142.124 1.114-.144c9.316-26.557 27.997-46.842 50.925-58.485z" fill="#ffb332"/><ellipse cx="476.164" cy="141.973" fill="#ffdd40" rx="22.755" ry="22.755" transform="matrix(.99 -.141 .141 .99 -15.258 68.535)"/><ellipse cx="480.413" cy="138.621" fill="#ffe888" rx="12.403" ry="12.403" transform="matrix(.99 -.141 .141 .99 -14.766 69.269)"/><path d="m176.169 24.315c-12.232 16.487-22.804 42.93-12.169 80.683 11.504 40.839 40.211 127.333 62.526 193.451 9.52 28.208 49.423 28.206 58.941-.002 22.309-66.118 51.009-152.611 62.513-193.449 10.637-37.761.059-64.207-12.176-80.693-25.016-8.616-51.86-13.307-79.803-13.307-27.955 0-54.808 4.694-79.832 13.317z" fill="#ff4155"/><path d="m391.028 194.205 11.109-59.036c-22.53 8.171-26.949-8.951-26.949-8.951l-36.075 126.181.989.293c9.317-26.559 27.998-46.844 50.926-58.487z" fill="#ff9100"/><path d="m494.176 198.406c-5.746-4.366-12.147-8.064-19.161-10.897-57.067-23.05-121.124 8.142-138.162 68.561l-64.278 227.941c-2.093 7.422-8.864 12.547-16.575 12.547s-14.483-5.126-16.575-12.547l-64.278-227.941c-17.037-60.419-81.095-91.611-138.162-68.561-7.014 2.833-13.415 6.531-19.161 10.897-4.451 18.473-6.826 37.755-6.826 57.594 0 25.675 3.958 50.423 11.282 73.678 22.241 11.236 49.709 9.345 68.145-4.89-3.34 1.279-6.963 1.987-10.754 1.987-4.892 0-9.507-1.175-13.59-3.246-18.657 3.547-40.625-5.074-49.395-26.788-11.409-28.246 2.24-60.392 30.486-71.8 39.739-16.051 85.291 7.522 92.982 52.095 2.981 17.278 26.391 152.975 29.632 171.761 2.984 17.297 9.732 31.574 18.904 42.84 21.387 6.098 43.966 9.365 67.309 9.365 23.438 0 46.104-3.296 67.568-9.442 9.022-11.23 15.665-25.473 18.646-42.764l29.632-171.761c7.69-44.568 53.239-68.148 92.982-52.095 28.246 11.409 41.895 43.555 30.486 71.8-8.77 21.714-30.738 30.335-49.395 26.788-4.083 2.071-8.698 3.246-13.59 3.246-3.79 0-7.413-.707-10.754-1.987 18.436 14.234 45.904 16.126 68.145 4.889 7.324-23.255 11.282-48.004 11.282-73.678.001-19.837-2.374-39.119-6.825-57.592z" fill="#ffdd40"/><path d="m288.008 429.282-15.433 54.729c-2.093 7.422-8.864 12.548-16.575 12.548s-14.483-5.126-16.575-12.548l-64.278-227.941c-17.037-60.419-81.095-91.611-138.162-68.561-7.014 2.833-13.415 6.531-19.161 10.897-4.451 18.473-6.826 37.755-6.826 57.594 0 25.674 3.958 50.423 11.282 73.678 22.241 11.236 49.709 9.345 68.145-4.89-3.34 1.279-6.963 1.987-10.754 1.987-4.892 0-9.507-1.175-13.59-3.246-18.657 3.547-40.625-5.074-49.395-26.788-11.409-28.245 2.24-60.391 30.486-71.8 39.739-16.051 85.291 7.522 92.982 52.095 2.981 17.278 26.391 152.975 29.632 171.761 2.984 17.297 9.732 31.574 18.904 42.84 21.387 6.098 43.966 9.365 67.309 9.365 23.438 0 46.104-3.296 67.568-9.442 9.022-11.23 15.665-25.473 18.646-42.764-45.785 21.466-54.205-19.514-54.205-19.514z" fill="#ffb332"/><circle cx="433.497" cy="297.855" fill="#ffe888" r="30.089"/><circle cx="438.247" cy="292.811" fill="#fff2bd" r="15.044"/><path d="m17.824 198.406c-4.451 18.473-6.826 37.755-6.826 57.594 0 25.674 3.958 50.423 11.282 73.678 22.241 11.236 49.709 9.345 68.145-4.89-3.34 1.279-6.963 1.987-10.754 1.987-4.892 0-9.507-1.175-13.59-3.246-18.657 3.547-40.625-5.074-49.395-26.788-11.409-28.245 2.24-60.391 30.486-71.8 1.555-.628 3.119-1.188 4.689-1.696-.004-.001-.008-.003-.012-.004-27.9-8.007-14.865-35.732-14.865-35.732-7.013 2.833-13.414 6.531-19.16 10.897z" fill="#ff9100"/><circle cx="78.503" cy="297.855" fill="#ffdd40" r="30.089"/><circle cx="83.253" cy="292.811" fill="#ffe888" r="15.044"/><circle cx="123.578" cy="406.574" fill="#f9a0b1" r="8.25"/><circle cx="375.281" cy="65.915" fill="#f9a0b1" r="8.25"/><g fill="#ff7186"><ellipse cx="82.986" cy="370.998" rx="14.777" ry="14.777" transform="matrix(.238 -.971 .971 .238 -297.104 363.367)"/><ellipse cx="402.137" cy="378.909" rx="14.777" ry="14.777" transform="matrix(.23 -.973 .973 .23 -59.028 683.232)"/></g></g></svg>