<svg id="Layer_1" enable-background="new 0 0 512 512" height="512" viewBox="0 0 512 512" width="512" xmlns="http://www.w3.org/2000/svg"><g><path d="m245.002 6.682c-72.962 0-138.463 31.906-183.346 82.512l-21.041 27.372c-18.807 28.391-31.855 60.923-37.483 95.942l4.06 86.843s1.18 16.037 4.409 26.996c5.767 18.042 13.564 35.174 23.129 51.128h.007s13.622 20.875 29.289 32.708 62.045 55.723 62.045 55.723l-.005.004c35.222 19.597 75.771 30.775 118.936 30.775 135.311 0 245.002-109.691 245.002-245.002 0-135.31-109.691-245.001-245.002-245.001z" fill="#1c2e7a"/><path d="m449.106 72.576c-20.306-14.845-42.978-25.134-66.593-30.791-45.352-10.863-94.153-4.633-136.143 19.276-46.914 26.715-98.829 40.652-150.628 40.526-13.712-.033-25.389-4.83-34.085-12.394-7.632 8.605-14.667 17.749-21.041 27.372 14.977 15.71 36.247 24.901 58.787 24.743 28.273-.198 94.841-4.847 166.626-45.723 50.28-28.629 112.939-25.073 159.63 9.062 24.507 17.916 40.571 44.303 45.232 74.301s-2.64 60.015-20.555 84.522c-28.295 38.704-82.804 47.171-121.507 18.879-27.303-19.961-34.66-57.215-18.04-85.839 6.639-11.434 22.42-23.077 35.483-25.112 11.091-1.728 22.187.376 31.755 5.936 7.808 4.537 16.136 15.188 17.914 24.042 1.497 7.457.563 14.981-2.581 21.665-1.644 3.496-.76 7.735 2.353 10.024 15.954 11.727 38.664 1.535 40.383-18.172.519-5.95.321-12.005-.62-18.059-3.057-19.678-13.594-36.987-29.67-48.739-19.022-13.907-42.324-19.576-65.612-15.958-23.286 3.618-43.77 16.088-57.678 35.112-34.271 46.88-24.013 112.9 22.865 147.172 56.387 41.219 135.803 28.885 177.025-27.504 24.179-33.074 34.031-73.584 27.741-114.068-6.289-40.484-27.968-76.094-61.041-100.273z" fill="#f9a0b1"/><path d="m383.123 362.059c-28.273.198-94.841 4.847-166.626 45.723-50.28 28.629-112.939 25.073-159.63-9.062-8.411-6.149-15.827-13.296-22.13-21.245 22.123 36.895 53.675 67.483 91.334 88.431 37.527 3.543 76.044-4.218 110.085-23.601 46.914-26.715 98.829-40.651 150.628-40.526 40.436.098 63.212 41.592 43.867 73.461-10.52 17.331-30.491 21.636-45.938 16.005-3.778 1.201-7.884 1.562-12.064.88-3.238-.528-6.235-1.638-8.911-3.196 21.962 23.498 67.94 23.38 88.922-11.185 12.897-21.246 13.462-45.814 4.833-66.925-12.247-29.958-42.007-48.986-74.37-48.76z" fill="#ff4155"/><path d="m12.435 328.93c-.293-1.495-.565-2.997-.8-4.511-4.661-29.998 2.64-60.015 20.555-84.522 28.295-38.704 82.804-47.171 121.507-18.879 27.303 19.961 34.66 57.215 18.04 85.839-6.639 11.434-22.42 23.077-35.483 25.112-11.091 1.728-22.187-.376-31.755-5.936-7.808-4.537-16.136-15.188-17.914-24.042-1.497-7.457-.563-14.981 2.581-21.665 1.645-3.496.76-7.735-2.353-10.024-15.954-11.727-38.664-1.535-40.383 18.172-.519 5.95-.321 12.005.619 18.059 3.057 19.678 13.594 36.987 29.67 48.739 19.022 13.907 42.324 19.576 65.612 15.958 23.286-3.618 43.77-16.088 57.678-35.112 34.271-46.88 24.013-112.9-22.865-147.172-55.045-40.238-132.029-29.433-174.012 23.561-2.051 12.759-3.132 25.841-3.132 39.177 0 26.992 4.372 52.961 12.435 77.246z" fill="#ff4155"/><ellipse cx="377.677" cy="467.578" fill="#ff7186" rx="26.049" ry="26.049" transform="matrix(.216 -.977 .977 .216 -160.316 735.593)"/><path d="m369.874 459.44c-1.084 6.646 3.425 12.912 10.071 13.996s12.912-3.425 13.996-10.071-3.425-12.912-10.071-13.996c-6.645-1.084-12.912 3.425-13.996 10.071z" fill="#f9a0b1"/><path d="m406.983 294.803c-25.648 8.291-54.78 4.633-78.154-12.453-27.303-19.961-34.66-57.215-18.04-85.839 6.639-11.434 22.419-23.077 35.483-25.112 11.091-1.728 22.187.376 31.755 5.936 7.808 4.537 16.136 15.188 17.914 24.042 1.497 7.457.563 14.981-2.582 21.665-1.644 3.496-.76 7.735 2.353 10.024 15.954 11.727 38.664 1.535 40.383-18.172.519-5.95.321-12.005-.62-18.059-3.057-19.678-13.594-36.987-29.67-48.739-19.022-13.907-42.324-19.576-65.612-15.958-23.286 3.618-43.77 16.088-57.678 35.112-34.271 46.88-24.013 112.9 22.865 147.172 34.976 25.568 78.81 30.523 116.896 17.148-21.291-8.885-18.258-27.689-15.293-36.767z" fill="#ff7186"/><path d="m99.403 141.309c28.273-.198 94.841-4.847 166.626-45.723 10.4-5.922 21.334-10.444 32.543-13.626-23.332-9.866-15.855-29.918-11.608-38.016-13.979 4.029-27.612 9.726-40.593 17.118-46.914 26.715-98.829 40.652-150.628 40.526-13.712-.033-25.389-4.83-34.085-12.394-7.632 8.605-14.667 17.749-21.041 27.372 14.975 15.71 36.245 24.901 58.786 24.743z" fill="#ff7186"/><g fill="#e80054"><path d="m55.033 218.306c-22.654-8.396-14.465-37.506-14.419-37.671-14.108 7.854-26.906 18.523-37.482 31.872-2.051 12.759-3.132 25.841-3.132 39.177 0 26.992 4.372 52.961 12.435 77.246-.293-1.495-.565-2.997-.8-4.511-4.661-29.998 2.64-60.015 20.555-84.522 6.424-8.787 14.208-15.997 22.843-21.591z"/><path d="m146.874 328.552c-3.585 1.677-7.195 2.884-10.62 3.418-11.091 1.728-22.187-.376-31.755-5.936-7.808-4.537-16.136-15.188-17.914-24.042-1.497-7.457-.563-14.981 2.581-21.665 1.644-3.496.76-7.735-2.353-10.024-15.954-11.727-38.664-1.535-40.383 18.172-.519 5.95-.321 12.005.619 18.059 3.057 19.678 13.594 36.987 29.67 48.739 19.022 13.907 42.324 19.576 65.612 15.958 11.642-1.809 22.584-5.83 32.353-11.777-29.717-2.325-29.606-21.67-27.81-30.902z"/><path d="m245.208 393.145c-9.423 4.277-19.017 9.117-28.711 14.637-50.28 28.629-112.939 25.073-159.63-9.062-8.411-6.149-15.827-13.296-22.13-21.245 22.123 36.895 53.675 67.483 91.334 88.431 37.527 3.543 76.044-4.218 110.085-23.601 9.604-5.469 19.42-10.393 29.399-14.78-25.972-5.557-22.891-25.867-20.347-34.38z"/></g><path d="m289.47 348.555c-3.033 3.4-8.248 3.697-11.648.664s-3.697-8.248-.664-11.648 8.248-3.697 11.648-.664 3.697 8.248.664 11.648z" fill="#6289cc"/><circle cx="132.844" cy="62.605" fill="#6289cc" r="8.25"/><ellipse cx="242.676" cy="324.515" fill="#2a428c" rx="14.777" ry="14.777" transform="matrix(.025 -1 1 .025 -87.729 559.109)"/><ellipse cx="289.85" cy="458.541" fill="#2a428c" rx="14.777" ry="14.777" transform="matrix(.23 -.973 .973 .23 -223.018 635.287)"/><ellipse cx="242.676" cy="157.408" fill="#2a428c" rx="14.777" ry="14.777" transform="matrix(.228 -.974 .974 .228 34.021 357.737)"/></g></svg>