<svg id="Layer_1" enable-background="new 0 0 512 512" height="512" viewBox="0 0 512 512" width="512" xmlns="http://www.w3.org/2000/svg"><g><path d="m424.232 88.984-73.482-53.17-15.194-7.528-.001-.002c-16.24-6.463-33.335-11.23-51.067-14.104l-18.362-.804-89.504 7.305c-102.033 29.6-176.622 123.743-176.622 235.319 0 135.311 109.691 245.002 245.002 245.002s245.002-109.691 245.002-245.002c0-64.548-24.975-123.254-65.772-167.016z" fill="#5c45bf"/><path d="m464.217 355.109c7.069 4.142 12.433 11.198 14.223 19.78 14.421 12.341 21.415 34.866 9.951 55.271-16.218 28.869-55.913 39.194-86.188 13.301-11.2-9.579-19.766-24.938-22.38-39.298-15.829-76.548 7.345-164.838 36.318-236.782 10.579-26.267 12.725-53.218 8.103-78.389-24.508-26.293-54.727-47.188-88.688-60.706 40.197 24.084 60.85 75.207 41.465 123.339-40.549 100.683-53.502 188.522-38.499 261.077 19.77 86.741 125.102 108.945 164.864 38.17 22.863-40.696-3.086-87-39.169-95.763z" fill="#ffdd40"/><path d="m379.823 404.164c-15.829-76.548 7.345-164.838 36.318-236.782 10.579-26.267 12.725-53.218 8.103-78.389-24.508-26.293-54.727-47.188-88.688-60.706 40.197 24.084 60.85 75.207 41.465 123.339-40.549 100.682-53.502 188.522-38.499 261.077 5.44 23.87 17.368 42.84 32.618 56.343-2.592-30.179 31.062-25.584 31.062-25.584-11.2-9.579-19.766-24.938-22.379-39.298z" fill="#ffb332"/><path d="m284.039 14.176c.17 0 .338.007.507.008-12.873-2.089-26.081-3.186-39.544-3.186-23.735 0-46.677 3.387-68.381 9.684-42.093 48.918-49.87 125.199-1.048 183.38l37.52 44.713 42.519-2.426-53.149-74.302c-47.483-66.381.618-157.871 81.576-157.871z" fill="#ffb332"/><ellipse cx="450.649" cy="381.234" fill="#ffe888" rx="30.072" ry="30.072" transform="matrix(.999 -.046 .046 .999 -16.892 20.915)"/><ellipse cx="455.417" cy="375.335" fill="#fff2bd" rx="15.036" ry="15.036" transform="matrix(.067 -.998 .998 .067 50.554 804.715)"/><path d="m186.316 91.868c-21.999 12.55-35.036-.703-40.817-9.636-9.205 40.094-1.12 84.656 30.074 121.829l37.52 44.713 42.519-2.426-53.149-74.302c-18.05-25.234-22.276-54.093-16.147-80.178z" fill="#ff9100"/><path d="m144.8 192.484c-77.818 0-140.901 63.084-140.901 140.901s63.083 140.901 140.901 140.901 140.901-63.084 140.901-140.901-63.084-140.901-140.901-140.901zm0 266.506c-45.411 0-82.224-56.235-82.224-125.605s36.813-125.605 82.224-125.605 82.224 56.235 82.224 125.605-36.813 125.605-82.224 125.605z" fill="#ffdd40"/><path d="m272.757 392.436c-31.332 11.58-45.233-4.739-50.774-15.659-11.565 47.986-41.757 82.212-77.183 82.212-45.411 0-82.224-56.235-82.224-125.605 0-23.396 4.192-45.293 11.485-64.048-29.787 6.497-36.646-13.71-38.163-25.361-19.994 24.325-32 55.464-32 89.409 0 77.818 63.084 140.901 140.901 140.901 56.73.001 105.621-33.529 127.958-81.849z" fill="#ffb332"/><ellipse cx="287.409" cy="127.243" fill="#7255ce" rx="55.508" ry="71.32"/><g fill="#b5b0f7"><circle cx="319.558" cy="462.97" r="8.25"/><circle cx="92.75" cy="107.002" r="8.25"/><circle cx="440.38" cy="257.189" r="8.25"/></g><ellipse cx="270.777" cy="456.443" fill="#7255ce" rx="14.777" ry="14.777" transform="matrix(.707 -.707 .707 .707 -243.445 325.158)"/><ellipse cx="92.75" cy="165.503" fill="#7255ce" rx="14.777" ry="14.777" transform="matrix(.209 -.978 .978 .209 -88.494 221.579)"/><path d="m182.312 197.542c-3.502.798-13.876 4.349-9.464 17.74 26.72 14.811 46.983 50.179 52.606 93.591 8.838 4.622 37.323 16.189 54.438-15.624-13.769-46.413-50.797-82.817-97.58-95.707z" fill="#ffe888"/></g></svg>