<svg id="Layer_1" enable-background="new 0 0 512 512" height="512" viewBox="0 0 512 512" width="512" xmlns="http://www.w3.org/2000/svg"><g><path d="m245.002 10.998c-105.269 0-195.02 66.395-229.689 159.589l-6.589 20.449c-5.677 20.691-8.724 42.47-8.724 64.964 0 14.628 1.287 28.954 3.745 42.877l15.642 52.793c8.718 20.532 20.163 39.623 33.87 56.834l35.524 36.232c42.406 35.14 96.845 56.266 156.221 56.266 135.311 0 245.002-109.691 245.002-245.002s-109.691-245.002-245.002-245.002z" fill="#1c2e7a"/><path d="m479.85 360.434c-22.111 36.141-65.318 55.354-108.304 45.534-31.403-5.831-52.615-19.908-73.288-30.4-46.24-25.444-102.51-25.454-148.774.015-20.663 10.49-41.87 24.557-73.258 30.385-7.691 1.757-15.386 2.569-22.969 2.536 10.565 13.266 22.471 25.415 35.524 36.232 23.7-4.888 47.395-14.839 68.343-27.138 14.964-8.785 31.003-15.085 47.793-18.836l-.029-.019c12.359-1.754 25.021-1.833 37.984.007l-.018.012c16.791 3.751 32.83 10.05 47.794 18.836 52.827 31.015 123.124 47.136 166.903 4.634 18.966-18.921 27.034-40.362 26.923-60.548-.012-2.515-3.311-3.396-4.624-1.25z" fill="#ffdd40"/><ellipse cx="223.886" cy="231.291" fill="#ffc839" rx="38.926" ry="76.96"/><ellipse cx="230.553" cy="217.515" fill="#ffdd40" rx="19.463" ry="38.48"/><path d="m474.797 183.71c-40.599-28.832-92.636-6.515-105.991 30.775 2.264-3.068 5.111-5.786 8.514-7.965 4.393-2.812 9.211-4.409 14.069-4.896 14.714-13.909 39.394-18.793 59.75-4.337 28.662 20.355 35.223 63.31 4.849 92.506-13.968 13.426-33.16 19.886-52.493 18.621-39.963-2.612-59.98-18.638-81.675-28.247-1.351-.598-1.799-2.27-.925-3.461 37.46-51.086 33.082-115.299 1.233-161.081-47.9-68.857-148.583-68.857-196.483 0-31.848 45.782-36.227 109.995 1.234 161.081.874 1.191.425 2.863-.925 3.461-21.695 9.608-41.712 25.634-81.675 28.247-14.272.934-28.46-2.355-40.534-9.535 3.246 18.387 8.54 36.066 15.642 52.793 35.104 7.16 74.537-1.154 107.177-19.374 10.936-6.105 22.03-11.825 40.635-17.27 5.298-1.551 7.456-7.975 4.075-12.339-19.621-25.32-28.964-58.901-28.964-91.086 0-59.763 31.086-109.91 73.012-123.632 5.562-1.82 11.566-1.82 17.128 0 41.926 13.721 73.012 63.868 73.012 123.632 0 32.185-9.343 65.766-28.964 91.086-3.382 4.364-1.224 10.788 4.075 12.339 18.605 5.444 29.699 11.165 40.635 17.27 50.773 28.343 117.984 32.723 159.769-7.842 48.642-48.526 35.076-111.447-6.18-140.746z" fill="#ffdd40"/><path d="m400.05 354.208c-26.634-19.339 3.444-45.796 3.444-45.796-39.963-2.612-59.98-18.638-81.675-28.246-1.351-.598-1.799-2.27-.925-3.461 37.46-51.086 33.082-115.299 1.233-161.081-47.9-68.857-148.583-68.857-196.483 0-31.848 45.782-36.227 109.995 1.234 161.081.874 1.191.425 2.863-.925 3.461-21.695 9.608-41.712 25.634-81.675 28.246-14.272.934-28.46-2.354-40.534-9.535 3.246 18.387 8.54 36.066 15.642 52.794 35.104 7.16 74.537-1.154 107.177-19.374 10.936-6.105 22.03-11.826 40.635-17.27 5.298-1.551 7.456-7.974 4.075-12.338-19.621-25.32-28.964-58.901-28.964-91.086 0-59.763 31.086-109.91 73.012-123.632 5.562-1.82 11.566-1.82 17.128 0 41.926 13.721 73.012 63.869 73.012 123.632 0 32.185-9.343 65.766-28.964 91.086-3.382 4.364-1.224 10.788 4.075 12.338 18.605 5.444 29.699 11.165 40.635 17.27 24.075 13.437 51.842 21.483 78.843 21.911z" fill="#ffb332"/><path d="m56.384 201.623c4.857.487 9.676 2.084 14.069 4.896 3.403 2.179 6.249 4.896 8.514 7.965-8.926-24.923-35.132-43.153-63.654-43.898-2.486 6.683-4.684 13.505-6.589 20.449 17.367-5.993 35.768-.653 47.66 10.588z" fill="#ff9100"/><ellipse cx="394.992" cy="231.816" fill="#ffe888" rx="32.078" ry="32.078" transform="matrix(.961 -.277 .277 .961 -48.729 118.374)"/><path d="m79.798 249.11c9.551-14.921 5.198-34.76-9.723-44.311s-34.76-5.198-44.311 9.723-5.198 34.76 9.723 44.311c14.92 9.551 34.759 5.198 44.311-9.723z" fill="#ffc839"/><ellipse cx="57.389" cy="224.617" fill="#ffdd40" rx="14.537" ry="14.537" transform="matrix(.056 -.999 .999 .056 -170.072 269.426)"/><path d="m411.768 232.454c4.328-6.762 2.356-15.753-4.406-20.081-6.762-4.329-15.753-2.356-20.081 4.406s-2.356 15.752 4.406 20.081 15.753 2.356 20.081-4.406z" fill="#fff2bd"/><path d="m86.409 299.203c-11.512 4.494-24.982 8.088-42.131 9.209-14.272.934-28.46-2.354-40.534-9.535 3.246 18.387 8.54 36.066 15.642 52.794 28.039 5.719 58.836 1.558 86.731-9.63-29.005-9.444-22.318-35.38-19.708-42.838z" fill="#ff9100"/><path d="m149.484 375.583c-20.663 10.49-41.87 24.557-73.258 30.385-7.691 1.757-15.386 2.569-22.969 2.536 10.565 13.266 22.471 25.415 35.524 36.232 23.7-4.888 47.395-14.839 68.343-27.138 14.964-8.786 31.003-15.085 47.793-18.836l-.029-.019c12.359-1.755 25.021-1.833 37.984.007l-.018.012c16.791 3.751 32.83 10.05 47.794 18.836 20.309 11.923 43.199 21.64 66.173 26.676-15.704-29.339 14.725-38.306 14.725-38.306-31.403-5.831-52.615-19.908-73.288-30.4-46.24-25.444-102.51-25.454-148.774.015z" fill="#ffb332"/><path d="m157.124 417.598c-31.401-6.849-19.947-35.512-19.947-35.512-17.077 9.193-35.724 19.198-60.95 23.882-7.691 1.757-15.386 2.569-22.969 2.536 10.565 13.266 22.471 25.415 35.524 36.232 23.698-4.887 47.394-14.839 68.342-27.138z" fill="#ff9100"/><circle cx="412.732" cy="135.297" fill="#6289cc" r="8.25"/><circle cx="247.605" cy="444.019" fill="#6289cc" r="8.25"/><g fill="#2a428c"><ellipse cx="366.682" cy="102.088" rx="14.777" ry="14.777" transform="matrix(.707 -.707 .707 .707 35.212 289.184)"/><ellipse cx="183.726" cy="455.514" rx="14.777" ry="14.777" transform="matrix(.707 -.707 .707 .707 -268.285 263.331)"/><circle cx="67.558" cy="135.297" r="14.777"/></g><path d="m474.797 183.71c-3.176-2.255-6.421-4.197-9.713-5.844-.001 0-18.666-.907-13.946 19.42 21.611 15.347 30.646 43.541 20.77 68.999 0 .002.003.009.003.009s7.297 28.145 35.613 16.406c12.676-38.463-2.674-77.647-32.727-98.99z" fill="#ffe888"/></g></svg>