<svg id="Layer_1" enable-background="new 0 0 512 512" height="512" viewBox="0 0 512 512" width="512" xmlns="http://www.w3.org/2000/svg"><g><path d="m248.502 21.996c-135.311 0-245.002 109.691-245.002 245.002 0 84.06 42.341 158.222 106.851 202.35l38.552 21.547c30.432 13.558 64.132 21.105 99.599 21.105 135.311 0 245.002-109.691 245.002-245.002s-109.691-245.002-245.002-245.002z" fill="#e80054"/><path d="m309.129 406.3c.516-1.299 1.136-2.552 1.786-3.79 10.062-19.174 8.25-43.327-6.482-60.99-15.634-18.745-41.065-24.475-62.593-15.981l27.213-47.135c33.588 3.318 63.214 27.798 70.503 64.21 5.27 26.323-6.149 52.108-26.951 66.415-1.89 1.3-4.323-.596-3.476-2.729z" fill="#ffdd40"/><path d="m194.514 506.005c17.372 3.911 35.435 5.995 53.988 5.995 123.412 0 225.494-91.253 242.497-209.962-31.721-7.902-83.802-12.95-106.553 29.705-33.856 63.477-49.724 131.3-104.078 110.208-41.992-16.296-79.831 23.513-85.854 64.054z" fill="#ff4155"/><path d="m317.6 301.348c-12.994-12.969-30.172-21.128-48.545-22.943l-27.213 47.135c17.724-6.994 38.09-4.336 53.46 7.28-6.344-29.237 21.866-31.44 22.298-31.472z" fill="#ffc839"/><path d="m104.849 288.358c.867-1.097 1.642-2.26 2.389-3.442 11.574-18.301 33.397-28.808 56.06-24.881 24.051 4.167 41.729 23.326 45.136 46.216l27.213-47.135c-19.668-27.429-55.681-40.845-90.859-28.952-25.431 8.598-42.053 31.38-44.041 56.548-.18 2.288 2.679 3.447 4.102 1.646z" fill="#ffb332"/><path d="m190.21 228.198c.059.108 14.881 27.19-15.454 35.128 18.087 7.377 30.84 23.851 33.679 42.926l27.213-47.135c-11.021-15.37-27.176-26.336-45.438-30.919z" fill="#ff9100"/><path d="m326.004 141.316c-12.458 8.188-24.754 14.112-36.699 18.074l-178.954 309.958c12.114 8.286 25.008 15.513 38.552 21.547 3.456-4.241 6.608-8.786 9.395-13.613l170.541-295.386c-2.723-13.139-3.628-26.881-2.835-40.58z" fill="#ffb332"/><path d="m326.004 141.316c-12.458 8.188-24.754 14.112-36.698 18.074l-31.444 54.462c.001 0 28.798-11.924 38.814 23.752l32.164-55.709c-2.724-13.138-3.629-26.88-2.836-40.579z" fill="#ff9100"/><path d="m504.046 216.314c16.735-44.38-16.419-86.917-54.004-90.194 3.375 1.343 6.568 3.307 9.398 5.915 3.654 3.366 6.292 7.419 7.916 11.775 16.375 10.189 26.848 31.743 18.457 53.994-11.814 31.331-49.799 47.771-84.046 26.856-62.684-36.191-41.978-124.96-33.706-152.554.249-.83-.108-1.715-.859-2.148-.75-.433-1.695-.3-2.29.33-19.761 20.961-86.284 83.278-148.969 47.087-35.237-19.202-39.991-60.317-18.765-86.214 15.075-18.392 38.978-20.099 55.989-11.013 4.585-.772 9.413-.514 14.156.968 3.674 1.147 6.971 2.93 9.822 5.181-21.63-30.91-75.045-38.353-105.112-1.671-63.289 77.218 37.962 194.087 152.899 118.547-2.588 44.685 12.803 89.862 50.95 112.9 56.477 33.065 111.158 5.339 128.164-39.759z" fill="#ffdd40"/><path d="m368.061 72.107c.249-.83-.108-1.715-.859-2.148-.75-.433-1.695-.3-2.29.33-19.761 20.961-86.284 83.278-148.969 47.087-35.237-19.202-39.991-60.317-18.765-86.214 15.075-18.392 38.978-20.099 55.989-11.013 4.585-.772 9.413-.514 14.156.968 3.674 1.147 6.971 2.93 9.822 5.181-21.63-30.911-75.045-38.354-105.112-1.672-63.289 77.218 37.962 194.087 152.899 118.547-2.588 44.685 12.803 89.862 50.95 112.9-8.143-33.541 25.884-31.412 25.884-31.412-62.683-36.191-41.978-124.96-33.705-152.554z" fill="#ffc839"/><path d="m197.18 31.162c15.075-18.392 38.978-20.099 55.989-11.013 4.585-.772 9.413-.514 14.156.968 3.674 1.147 6.971 2.93 9.822 5.181-21.632-30.911-75.047-38.354-105.114-1.672-35.584 43.416-19.153 99.366 22.48 126.604-11.512-31.217 21.43-33.854 21.43-33.854-35.236-19.202-39.99-60.317-18.763-86.214z" fill="#ffb332"/><ellipse cx="440.413" cy="154.438" fill="#ffe888" rx="30.555" ry="30.555" transform="matrix(.005 -1 1 .005 283.839 594.096)"/><ellipse cx="257.436" cy="48.796" fill="#ffc839" rx="30.555" ry="30.555" transform="matrix(.73 -.684 .684 .73 36.17 189.136)"/><ellipse cx="263.783" cy="43.713" fill="#ffdd40" rx="15.277" ry="15.277" transform="matrix(.793 -.61 .61 .793 28.075 169.944)"/><ellipse cx="446.783" cy="150.578" fill="#fff2bd" rx="15.277" ry="15.277" transform="matrix(.793 -.61 .61 .793 .874 303.725)"/><path d="m3.5 266.998c0 67.822 27.568 129.197 72.099 173.557 36.138-24.167 54.57-83.875 15.426-112.608-47-34.5 1.667-84.333 37-147 23.691-42.017-8.363-83.133-32.059-105.669-56.344 44.889-92.466 114.082-92.466 191.72z" fill="#ff4155"/><circle cx="364.025" cy="296.707" fill="#ff7186" r="8.25"/><circle cx="319.318" cy="61.058" fill="#f9a0b1" r="8.25"/><ellipse cx="174.755" cy="185.539" fill="#ff4155" rx="14.777" ry="14.777" transform="matrix(.707 -.707 .707 .707 -80.012 177.914)"/><ellipse cx="136.344" cy="331.928" fill="#ff7186" rx="14.777" ry="14.777" transform="matrix(.707 -.707 .707 .707 -194.774 193.629)"/></g></svg>