<svg id="Layer_1" enable-background="new 0 0 512 512" height="512" viewBox="0 0 512 512" width="512" xmlns="http://www.w3.org/2000/svg"><g><path d="m256 0c-21.89 0-43.103 2.887-63.296 8.273l-35.543 12.5c-86.078 37.999-146.163 124.09-146.163 224.229 0 135.311 109.691 245.002 245.002 245.002s245.002-109.691 245.002-245.002-109.691-245.002-245.002-245.002z" fill="#5c45bf"/><path d="m333.046 258.761c-6.671 14.111-12.089 29.361-16.263 45.707l-17.935 53.413c-6.897 27.64-16.75 53.996-30.456 77.642-7.45 13.59-21.231 26.19-35.728 32.082-39.185 15.929-75.711-7.787-82.365-42.31-4.488-23.285 8.604-42.867 26.031-51.211l.589.396c3.967-8.027 11.223-14.172 20.248-16.618v-.218c-38.482-1.401-78.092 35.915-68.922 83.486 16.755 86.918 133.351 95.605 179.081 16.515 19.532-33.8 21.54-52.732 45.625-151.189 3.211-11.277 7.202-22.186 12.107-32.562z" fill="#38c674"/><path d="m311.119 321.337-12.271 36.544c-4.837 19.383-11.134 38.13-19.188 55.758l.003-.001c32.413-12.809 40.929 16.75 40.929 16.75h.001c7.129-18.369 12.296-40.426 22.362-82.522z" fill="#1ba552"/><path d="m472.73 253.051-.01.009c-22.801-58.558-107.648-58.647-139.674 5.701 0 0 4.82 23.617 32.012 15.134 4.972-11.201 14.999-22.041 26.032-27.643 39.372-19.99 76.138 15.386 68.003 47.014-.111.11-7.97 35.775-51.363 44.534v-.005c-6.191 1.165-12.557 1.652-18.732 1.652l.005-.015c-31.587-.274-53.724-16.146-67.437-30.729-14.654-15.584-23.412-35.836-24.836-57.18-.136-2.032-.149-3.203-.149-3.203-.744-37.282 8.491-82.056 27.494-133.185l.116-.316c12.054-32.847 1.08-67.518-27.959-88.329-31.179-22.344-72.078-21.261-101.772 2.695-3.731 3.01-26.666 24.481-26.889 24.691l28.764 30.564c3.888-3.659 21.839-20.348 24.558-22.654 18.282-14.686 38.835-9.822 50.891-1.181 5.126 3.674 21.211 17.397 12.987 39.809l-.065.174c-20.683 55.647-30.796 105.33-30.096 147.732h-.047c.56 18.541 3.788 35.548 9.709 50.828 1.718 4.434 3.793 8.64 6.169 12.613 0 0 28.727 49.21 85.031 54.038 0 0 35.094 4.478 73.468-13.799 36.407-19.255 45.547-49.506 47.281-69.491 1.369-15.797-3.038-27.396-3.491-29.458z" fill="#70f2a4"/><path d="m271.784 60.604c-8.966-31.343 24.448-34.114 24.448-34.114-31.179-22.344-72.078-21.261-101.772 2.695-3.731 3.01-26.666 24.481-26.889 24.691l28.764 30.564c3.888-3.659 21.839-20.348 24.558-22.654 18.281-14.686 38.834-9.823 50.891-1.182z" fill="#50dd89"/><g><path d="m157.74 84.045c-2.393 9.141-9.892 28.02-17.377 52.66-7.02-5.269-14.982-9.315-23.629-11.783-40.821-12.867-73.518 11.908-80.174 44.053-2.606 12.585-.15 24.176 5.368 33.603 1.725 2.947 6.29 1.433 5.813-1.947-1.448-10.262.478-21.066 6.227-30.645.311-.518.629-1.027.955-1.527 22.916-35.19 77.884-13.306 71.33 28.172-2.725 17.246-4.305 35.411-3.843 53.801.583 23.247 4.581 44.178 11.765 62.143 8.056 20.144 33.923 25.795 49.831 11.072 1.885-1.744 2.174-4.647.563-6.647-12.512-15.52-19.478-38.772-20.202-67.622-.941-37.491 8.294-82.632 27.449-134.168 11.072-29.789 14.52-57.32 10.253-81.829-1.583-9.087-4.791-17.547-9.364-25.108-12.253 3.268-24.126 7.46-35.543 12.501 9.529 13.922 9.889 35.63.578 63.271z" fill="#38c674"/></g><path d="m231.279 371.443c-9.496-14.835-29.219-19.162-44.054-9.667-14.835 9.496-19.163 29.22-9.667 44.054 9.496 14.835 29.22 19.163 44.055 9.667 14.835-9.495 19.163-29.219 9.666-44.054z" fill="#50dd89"/><path d="m75.25 240.502c-24.298-15.054-48.028-9.712-64.153-2.146-.059 2.209-.099 4.422-.099 6.646 0 64.578 24.997 123.308 65.828 167.076 43.21-39.826 34.27-149.368-1.576-171.576z" fill="#7255ce"/><path d="m333.454 12.507c13.597 17.596 33.749 51.877 23.001 90.633-15.609 56.288 7.646 93.814 59.603 84.085 37.752-7.069 66.047 11.178 83.763 33.679-9.529-97.606-76.331-178.416-166.367-208.397z" fill="#7255ce"/><circle cx="211.25" cy="380.697" fill="#70f2a4" r="11.5"/><circle cx="342.955" cy="197.71" fill="#7255ce" r="8.25"/><circle cx="430.25" cy="385.38" fill="#b5b0f7" r="8.25"/><circle cx="114.064" cy="84.44" fill="#b5b0f7" r="8.25"/><ellipse cx="370.144" cy="404.759" fill="#7255ce" rx="14.777" ry="14.777" transform="matrix(.707 -.707 .707 .707 -177.795 380.282)"/><path d="m472.72 253.06c-1.099-2.823-2.346-5.507-3.721-8.058 0 0-17.823-3.427-17.823 13.759 7.594 9.868 11.016 22.457 7.917 34.505-.111.11-7.97 35.775-51.363 44.534v-.005c-6.191 1.165-12.557 1.652-18.732 1.652l.005-.015c-31.587-.274-53.724-16.146-67.437-30.729-5.729-6.093-10.543-12.906-14.383-20.212l-.013-.001s-32.082-7.301-32.082 30.078c10.205 13.68 37.172 43.526 80.384 47.231 0 0 35.094 4.478 73.468-13.799 36.407-19.255 45.547-49.506 47.281-69.491 1.371-15.797-3.037-27.396-3.49-29.458z" fill="#a9ffcc"/></g></svg>