<svg id="Layer_1" enable-background="new 0 0 512 512" height="512" viewBox="0 0 512 512" width="512" xmlns="http://www.w3.org/2000/svg"><g><path d="m41.764 374.921s84.789 109.41 216.109 109.41 212.363-109.41 212.363-109.41c19.592-35.218 30.766-75.762 30.766-118.921 0-135.311-109.691-245.002-245.002-245.002s-245.002 109.691-245.002 245.002c0 43.16 11.175 83.703 30.766 118.921z" fill="#ffc839"/><path d="m470.832 364.094c0-80.03-96.184-144.908-214.832-144.908s-214.832 64.878-214.832 144.908c0 3.642.205 7.252.596 10.827 41.831 75.196 122.085 126.081 214.236 126.081s172.405-50.885 214.236-126.08c.391-3.575.596-7.185.596-10.828zm-214.832 96.807c-103.16 0-186.788-43.342-186.788-96.806 0-53.465 83.628-96.806 186.788-96.806s186.788 43.342 186.788 96.806-83.628 96.806-186.788 96.806z" fill="#ff4155"/><path d="m499.77 116.118c-34.302-54.003-109.3-60.779-152.972-13.401l-43.267 46.938s-23.672 28.433-47.531 28.433-47.531-28.433-47.531-28.433l-43.267-46.938c-43.712-47.421-118.699-40.557-152.972 13.401-23.212 36.545-12.404 84.987 24.14 108.2 37.253 23.662 82.291 1.529 92.406-32.088-1.864 2.82-4.259 5.355-7.171 7.439-3.759 2.69-7.951 4.324-12.228 4.977-12.387 12.984-34.008 18.437-52.687 6.572-24.297-15.433-31.483-47.64-16.05-71.938 23.872-37.583 78.209-40.836 104.61-4.955l35.559 48.326s22.384 39.857 75.192 39.857 75.192-39.857 75.192-39.857l35.559-48.326c26.384-35.858 80.726-32.648 104.61 4.955 15.433 24.297 8.247 56.505-16.05 71.938-18.678 11.864-40.3 6.411-52.687-6.572-4.277-.653-8.469-2.288-12.228-4.977-2.913-2.084-5.308-4.62-7.171-7.439 10.114 33.617 55.152 55.75 92.405 32.088 36.544-23.212 47.352-71.655 24.139-108.2z" fill="#ff4155"/><ellipse cx="256" cy="364.009" fill="#ffdd40" rx="127.647" ry="66.1"/><path d="m288.518 115.985c16.768-18.359 30.168-42.752 57.29-55.987 11.226-5.478 17.338-14.027 20.555-22.781-33.168-16.764-70.66-26.219-110.363-26.219s-77.195 9.455-110.363 26.219c3.217 8.754 9.329 17.303 20.555 22.781 27.122 13.236 40.522 37.628 57.29 55.987 17.428 19.082 47.609 19.082 65.036 0z" fill="#ffdd40"/><path d="m256 178.088c-23.859 0-47.531-28.433-47.531-28.433l-43.267-46.938c-43.712-47.421-118.699-40.557-152.972 13.401-23.212 36.545-12.404 84.987 24.14 108.2 37.253 23.662 82.291 1.529 92.406-32.088-1.864 2.82-4.259 5.355-7.171 7.439-3.759 2.69-7.951 4.324-12.228 4.977-12.387 12.984-34.008 18.437-52.687 6.572-24.297-15.433-31.483-47.64-16.05-71.938 23.872-37.583 78.209-40.836 104.61-4.955l35.559 48.326s22.384 39.857 75.192 39.857 75.192-39.857 75.192-39.857c-36-3.012-27.661-32.998-27.661-32.998s-23.673 28.435-47.532 28.435z" fill="#e80054"/><ellipse cx="407.195" cy="178.088" fill="#ff7186" rx="28.431" ry="28.431" transform="matrix(.985 -.171 .171 .985 -24.469 72.31)"/><path d="m401.421 165.691c-4.125 5.766-2.795 13.784 2.97 17.91 5.766 4.125 13.784 2.796 17.91-2.97 4.125-5.766 2.795-13.784-2.97-17.91s-13.784-2.796-17.91 2.97z" fill="#f9a0b1"/><path d="m128.776 192.23c-1.864 2.82-4.259 5.355-7.171 7.439-3.759 2.69-7.951 4.324-12.228 4.977-12.387 12.984-34.008 18.437-52.687 6.572-24.297-15.433-31.483-47.64-16.05-71.938 4.21-6.628 9.37-12.182 15.154-16.648-30.957-1.044-22.621-30.149-22.621-30.149-7.942 6.459-15.045 14.349-20.943 23.634-23.212 36.545-12.404 84.987 24.14 108.2 37.253 23.663 82.291 1.53 92.406-32.087z" fill="#cc0053"/><ellipse cx="104.805" cy="178.088" fill="#ff4155" rx="28.431" ry="28.431" transform="matrix(.984 -.179 .179 .984 -30.132 21.591)"/><ellipse cx="109.472" cy="173.161" fill="#ff7186" rx="12.837" ry="12.837" transform="matrix(.941 -.339 .339 .941 -52.238 47.389)"/><path d="m367.812 474.05c-12.34-9.453-10.527-23.753-9.334-29.015-29.423 10.026-64.633 15.866-102.478 15.866-103.16 0-186.788-43.342-186.788-96.806 0-53.465 83.628-96.806 186.788-96.806 26.752 0 52.185 2.921 75.192 8.171-16.523-25.477 5.053-40.856 10.595-44.246-26.279-7.73-55.287-12.026-85.787-12.026-118.648 0-214.832 64.877-214.832 144.908 0 3.642.205 7.252.596 10.827 41.831 75.194 122.085 126.079 214.236 126.079 40.283 0 78.292-9.724 111.812-26.952z" fill="#e80054"/><circle cx="483.525" cy="286.017" fill="#fff2bd" r="8.25"/><circle cx="153.887" cy="206.521" fill="#fff2bd" r="8.25"/><ellipse cx="450.405" cy="260.498" fill="#ffe888" rx="14.777" ry="14.777" transform="matrix(.241 -.971 .971 .241 88.951 634.764)"/><ellipse cx="212.525" cy="47.772" fill="#ffe888" rx="14.777" ry="14.777" transform="matrix(.272 -.962 .962 .272 108.683 239.255)"/><path d="m499.77 116.118c-15.369-24.197-38.911-38.905-64.142-43.516s-25.112 13.798-8.441 37.431c17.301 2.845 33.678 12.724 44.174 29.248 7.127 11.221 9.42 24.128 7.442 36.292s4.04 21.156 27.509 11.824c9.078-22.622 7.526-49.131-6.542-71.279z" fill="#ff7186"/></g></svg>